<?xml version="1.0" standalone="no"?>
<!DOCTYPE svg PUBLIC "-//W3C//DTD SVG 20010904//EN"
 "http://www.w3.org/TR/2001/REC-SVG-20010904/DTD/svg10.dtd">
<svg version="1.0" xmlns="http://www.w3.org/2000/svg"
 width="482.000000pt" height="482.000000pt" viewBox="0 0 482.000000 482.000000"
 preserveAspectRatio="xMidYMid meet">
<metadata>
Created by potrace 1.15, written by Peter Selinger 2001-2017
</metadata>
<g transform="translate(0.000000,482.000000) scale(0.100000,-0.100000)"
fill="#65453b" stroke="none">
<path d="M2113 4805 c-676 -86 -1271 -440 -1670 -995 -213 -296 -361 -661
-420 -1034 -26 -160 -25 -577 0 -731 34 -204 101 -435 171 -589 19 -42 33 -76
31 -76 -3 0 11 -26 29 -58 30 -51 67 -117 100 -177 25 -46 104 -156 173 -243
338 -423 829 -726 1372 -847 203 -45 479 -63 685 -46 433 36 808 165 1156 396
123 82 157 107 231 172 20 18 39 29 43 25 4 -4 6 -2 5 3 -2 6 40 53 92 105
259 261 438 541 566 890 105 288 157 658 134 965 -11 146 -37 327 -61 415 -6
24 -13 53 -14 65 -1 11 -5 25 -8 30 -3 6 -15 42 -28 80 -142 440 -414 838
-772 1126 -351 283 -706 440 -1163 516 -130 21 -510 26 -652 8z m603 -100
c262 -36 517 -117 754 -239 47 -25 84 -49 83 -55 -2 -6 3 -8 10 -5 14 5 132
-69 232 -145 135 -102 250 -210 348 -325 134 -156 181 -221 262 -360 298 -515
386 -1093 255 -1690 -21 -96 -95 -326 -108 -336 -4 -3 -9 -14 -11 -25 -5 -31
-112 -241 -169 -333 -29 -46 -85 -127 -124 -180 -82 -109 -303 -336 -392 -403
-32 -24 -82 -61 -110 -82 -116 -86 -306 -191 -463 -255 -313 -128 -606 -180
-947 -169 -330 11 -597 72 -886 203 -152 69 -376 202 -387 231 -3 7 -8 11 -12
9 -7 -4 -91 59 -171 129 -105 91 -233 232 -347 380 -56 73 -166 259 -216 364
-353 748 -284 1620 182 2301 492 718 1357 1102 2217 985z"/>
<path d="M1865 3784 c-189 -28 -319 -85 -376 -165 l-20 -28 44 -53 c53 -67
108 -172 136 -262 25 -81 25 -77 6 -70 -8 4 -26 -1 -40 -10 -14 -9 -29 -15
-34 -12 -4 3 -45 -31 -89 -75 -44 -44 -97 -89 -116 -98 -34 -18 -35 -18 -40 3
-3 12 -20 36 -37 54 -28 31 -32 33 -48 18 -10 -9 -22 -16 -27 -16 -5 0 -1 5 9
11 9 5 17 17 17 24 0 8 4 15 9 15 5 0 7 9 4 20 -3 11 0 20 6 20 16 0 13 30 -3
36 -11 4 -13 12 -5 31 11 31 2 88 -17 104 -8 6 -40 13 -72 16 -31 2 -64 7 -72
10 -8 3 -25 5 -36 4 -15 -2 -23 5 -28 22 -7 30 -43 39 -106 27 -25 -5 -62 -9
-82 -10 -29 0 -47 -9 -78 -36 -22 -20 -40 -42 -39 -48 1 -6 -5 -28 -14 -48
-21 -46 -22 -92 -2 -122 14 -21 13 -24 -5 -41 -26 -24 -25 -32 5 -39 22 -6 25
-12 24 -39 -5 -65 1 -104 20 -125 20 -24 51 -28 69 -10 9 9 12 7 12 -9 0 -12
-12 -30 -27 -41 l-27 -19 23 -12 c12 -7 29 -10 37 -7 9 3 14 -1 14 -14 0 -11
9 -25 20 -32 12 -8 20 -24 20 -41 0 -21 4 -28 14 -24 8 3 17 -1 20 -10 14 -35
-8 -83 -70 -158 -38 -46 -68 -92 -74 -116 -5 -21 -14 -56 -20 -76 -14 -54 -45
-100 -82 -124 -48 -29 -139 -22 -197 17 -66 43 -85 90 -85 204 0 84 3 101 27
147 36 69 64 87 123 80 42 -4 63 -18 64 -40 0 -5 -9 -5 -20 -2 -17 5 -20 2
-20 -25 0 -18 6 -33 15 -36 25 -10 17 -38 -15 -52 -36 -16 -41 -59 -10 -87 15
-14 19 -26 15 -49 -4 -21 1 -41 15 -64 23 -38 40 -47 75 -38 31 8 34 50 5 81
-20 21 -20 21 8 55 16 19 37 50 47 68 11 17 23 32 27 32 4 0 8 5 8 10 0 6 -7
10 -17 10 -13 0 -13 3 5 18 15 13 18 22 11 34 -6 11 -6 19 1 23 15 9 12 31 -6
49 -20 21 -32 20 -37 -1 -3 -14 -7 -11 -23 14 -22 38 -42 48 -123 63 -53 10
-66 9 -104 -8 -56 -25 -103 -80 -122 -144 -76 -256 42 -448 274 -448 57 0 79
5 124 29 l55 29 11 -51 c5 -29 13 -64 17 -79 9 -40 -3 -90 -32 -134 -25 -37
-26 -40 -14 -94 7 -30 16 -80 20 -110 4 -30 11 -64 15 -74 9 -20 5 -20 -129 0
l-31 4 35 -14 c19 -8 59 -15 88 -15 42 -1 61 -7 90 -28 20 -16 40 -32 45 -38
4 -6 16 0 30 16 25 30 54 43 62 29 11 -17 21 -11 37 23 13 28 26 36 89 56 41
13 111 41 157 62 74 34 112 41 112 19 0 -11 -30 -21 -41 -14 -5 3 -8 1 -7 -4
2 -5 -17 -26 -42 -47 -25 -20 -48 -42 -51 -47 -3 -5 -16 -10 -27 -11 -12 -1
-22 -4 -22 -8 0 -15 40 -20 62 -9 13 7 6 -4 -17 -24 -71 -64 -140 -114 -159
-118 -35 -6 -28 23 15 64 24 23 35 38 24 33 -159 -63 -259 -78 -367 -56 -144
30 -265 143 -243 228 l7 28 12 -30 c7 -17 20 -36 30 -44 15 -13 15 -11 1 15
-18 35 -19 61 -2 67 21 7 -11 36 -34 30 -41 -11 -55 -94 -25 -156 29 -60 87
-108 171 -143 65 -26 80 -28 210 -29 124 0 141 -2 147 -17 12 -30 60 -21 127
22 50 32 66 38 77 29 7 -6 30 -9 49 -7 31 3 42 -2 77 -34 l42 -38 21 26 c12
15 29 49 39 75 20 58 31 62 39 15 8 -49 51 -110 92 -129 103 -49 238 16 252
121 9 67 -56 117 -118 92 -16 -7 -31 -21 -34 -32 -7 -21 10 -48 31 -48 23 0
16 -26 -10 -40 -29 -15 -69 -7 -96 20 -25 25 -26 77 -4 123 l16 34 72 -18
c215 -56 496 -99 646 -99 103 0 243 14 370 37 52 10 112 18 132 18 20 0 34 2
32 5 -5 5 192 59 217 60 21 0 49 -62 49 -110 0 -62 -65 -100 -121 -70 -27 15
-24 37 6 44 31 8 33 38 5 66 -25 25 -56 25 -96 1 -72 -44 -46 -149 48 -197 58
-29 115 -31 167 -4 21 10 42 16 46 12 5 -4 5 -1 1 6 -4 7 2 24 13 38 12 15 21
34 22 43 0 9 9 -8 21 -37 l20 -54 35 34 c19 18 41 46 49 61 l15 28 30 -26 c34
-28 96 -35 105 -11 4 11 21 4 70 -30 71 -48 122 -58 130 -27 5 16 18 18 126
15 108 -3 131 0 202 22 113 36 189 97 212 171 15 48 16 58 3 92 -10 27 -22 39
-38 41 -29 5 -52 -15 -32 -27 9 -6 12 -20 9 -41 -5 -30 -4 -31 9 -15 7 11 13
25 13 33 0 7 5 10 10 7 6 -3 10 -20 10 -36 0 -17 -4 -28 -9 -25 -5 4 -7 -3 -4
-14 9 -33 -88 -122 -162 -150 -104 -40 -265 -37 -363 6 -20 9 -41 18 -47 20
-5 1 -19 5 -30 9 -11 4 0 -10 24 -32 33 -29 43 -44 38 -57 -7 -17 -9 -17 -43
3 -20 12 -56 38 -79 59 -40 35 -41 38 -24 50 20 14 26 42 9 42 -5 0 -10 -4
-10 -10 0 -16 -32 -12 -73 9 -20 10 -37 17 -37 14 0 -3 14 -21 30 -40 17 -19
28 -38 25 -44 -4 -5 -1 -9 4 -9 6 0 11 -4 11 -10 0 -5 -13 -10 -29 -10 -29 0
-63 31 -121 113 -14 19 -27 35 -30 34 -3 -1 -25 10 -49 25 l-44 26 54 16 53
16 53 -35 c29 -19 53 -40 53 -45 0 -6 4 -10 10 -10 19 0 -2 28 -46 60 -67 51
-34 53 64 4 48 -23 128 -55 179 -70 80 -24 92 -31 97 -53 3 -14 10 -33 16 -41
8 -12 12 -13 19 -1 6 10 13 10 28 2 11 -5 23 -7 27 -4 3 3 6 -3 6 -15 0 -36
19 -35 64 2 24 19 46 32 50 29 3 -4 6 1 6 9 0 11 15 17 55 21 29 3 62 10 72
17 14 8 4 9 -45 4 l-63 -6 7 53 c3 30 12 80 19 111 11 47 11 60 -1 75 -15 20
-18 37 -6 29 4 -2 9 4 9 15 1 15 -3 19 -17 14 -30 -10 -44 56 -25 119 8 27 15
59 15 72 0 13 4 26 10 29 10 6 53 -18 45 -26 -2 -3 4 -5 13 -6 9 0 42 -6 73
-12 92 -19 173 5 245 71 64 59 86 107 92 200 11 185 -76 329 -199 328 -87 -1
-126 -15 -164 -56 -25 -28 -35 -34 -35 -21 0 21 -13 22 -29 3 -15 -17 -4 -107
13 -118 8 -5 7 -8 -1 -8 -18 0 -16 -27 2 -34 8 -3 15 -12 15 -20 0 -13 21 -41
65 -87 13 -14 12 -18 -10 -39 -27 -25 -26 -55 1 -76 38 -30 98 36 93 103 -2
24 1 37 8 36 6 -1 16 11 23 28 11 25 10 32 -5 49 -10 11 -24 20 -32 20 -7 0
-13 11 -13 25 0 14 4 25 9 25 11 0 24 48 15 61 -4 6 -11 6 -20 -2 -11 -9 -14
-8 -14 8 0 24 38 43 84 43 68 0 126 -108 126 -235 0 -147 -75 -235 -200 -235
-92 0 -151 58 -171 165 -11 63 -28 102 -59 138 -10 12 -36 44 -59 70 -34 40
-41 55 -41 92 0 38 2 43 20 38 17 -4 20 0 20 23 0 18 8 34 20 42 11 7 20 19
20 27 0 9 9 15 24 15 13 0 29 7 36 15 10 12 8 16 -13 24 -13 5 -27 18 -29 29
-5 18 -2 20 26 15 37 -6 62 13 72 55 4 15 19 38 35 52 23 21 26 29 18 48 -8
21 -10 22 -25 8 -8 -9 -20 -14 -25 -11 -16 11 -10 23 16 29 29 7 32 18 10 36
-17 14 -20 37 -5 42 20 6 23 73 4 113 -10 22 -18 45 -19 50 -4 41 -67 88 -123
92 -26 2 -71 6 -100 9 -42 5 -57 2 -72 -11 -11 -10 -18 -21 -15 -25 4 -6 -48
-15 -180 -34 -35 -5 -58 -79 -36 -115 7 -10 4 -19 -7 -27 -14 -11 -15 -16 -4
-33 6 -12 12 -30 12 -40 0 -11 10 -27 22 -35 18 -13 19 -16 5 -16 -9 0 -17 5
-17 10 0 19 -21 10 -55 -25 -19 -19 -35 -43 -35 -54 0 -20 -1 -20 -37 4 -40
25 -46 30 -121 108 -52 54 -111 87 -154 87 -35 0 -35 10 -2 108 32 96 82 190
135 253 l41 49 -23 31 c-31 44 -131 106 -208 129 -204 60 -496 47 -650 -28
l-56 -27 -54 26 c-30 15 -88 34 -130 43 -74 17 -295 29 -356 20z m361 -53 c85
-21 154 -49 154 -63 0 -15 26 -8 86 22 91 45 188 62 354 64 217 1 357 -40 448
-132 l42 -44 -41 -46 c-23 -26 -63 -92 -90 -147 -95 -201 -117 -385 -79 -660
63 -448 16 -571 -264 -684 -16 -6 -26 -14 -23 -18 9 -9 -30 -63 -77 -106 -96
-89 -227 -147 -330 -147 -145 1 -348 120 -404 236 -12 25 -27 37 -73 54 -107
39 -191 121 -224 220 -25 75 -23 250 5 440 29 194 26 366 -8 477 -48 161 -106
279 -168 344 l-34 35 32 36 c65 71 173 118 313 137 99 14 285 5 381 -18z
m-1246 -357 c23 -14 23 -14 3 -9 -37 10 -26 -12 12 -25 26 -8 35 -17 35 -33 1
-20 2 -20 13 -6 10 13 14 14 25 3 7 -8 8 -15 2 -19 -6 -3 -10 -11 -10 -16 0
-6 5 -7 12 -3 8 5 9 2 5 -9 -12 -31 20 -18 49 20 20 26 23 35 11 30 -19 -7
-67 11 -67 26 0 5 8 6 18 1 9 -4 36 -9 60 -12 41 -4 61 -22 24 -22 -23 0 -42
-19 -42 -41 0 -9 -7 -22 -15 -29 -17 -14 -21 -60 -5 -60 6 0 10 8 10 19 0 10
8 25 18 32 15 13 16 12 3 -3 -29 -37 10 -121 42 -89 15 15 50 14 45 -1 -3 -7
-25 -14 -50 -16 -50 -3 -98 25 -98 59 0 10 -4 19 -10 19 -13 0 -13 -26 0 -49
7 -14 4 -24 -10 -41 -33 -38 -20 -76 35 -107 11 -7 17 -22 17 -48 0 -26 3 -33
9 -24 17 27 10 69 -17 94 -15 14 -31 25 -35 25 -14 0 -10 32 6 50 13 15 21 16
50 6 19 -7 43 -20 53 -29 10 -9 28 -17 39 -17 42 0 82 -13 88 -28 3 -9 3 -13
-1 -9 -11 10 -34 -13 -34 -34 0 -9 7 -25 16 -33 24 -25 5 -19 -27 8 -15 13
-25 27 -21 30 3 4 -2 4 -12 0 -13 -5 -23 -1 -32 11 -18 24 -29 13 -14 -15 6
-11 24 -23 40 -26 16 -4 31 -13 35 -22 7 -20 -2 -29 -17 -14 -20 20 -76 15
-88 -8 -6 -11 -16 -17 -25 -14 -9 4 -18 -3 -24 -17 -7 -18 -10 -19 -10 -6 -1
9 -4 17 -7 17 -14 0 -74 -33 -74 -41 0 -5 -7 -9 -15 -9 -8 0 -24 -10 -35 -22
l-21 -23 6 26 c4 16 2 30 -4 33 -7 4 -11 -1 -11 -14 0 -30 -18 -60 -36 -60
-18 0 -13 33 12 84 8 16 14 41 14 55 0 30 -25 71 -43 70 -9 0 -9 -2 0 -6 21
-8 26 -68 9 -101 -9 -17 -22 -34 -28 -38 -10 -6 -11 -4 0 7 28 30 1 109 -37
109 -10 0 -24 -6 -30 -14 -10 -11 -8 -17 6 -25 16 -9 16 -10 1 -11 -9 0 -20 5
-24 11 -10 17 -7 70 5 82 15 15 14 30 -3 24 -11 -4 -12 2 -6 28 9 39 5 46 -18
38 -14 -5 -15 -3 -4 8 14 16 16 75 2 84 -5 3 -10 -2 -10 -12 -1 -17 -1 -17
-11 0 -15 25 6 100 39 138 13 16 20 29 15 29 -20 1 33 30 55 30 23 0 24 -1 9
-18 -20 -22 -38 -68 -30 -76 4 -4 12 7 19 23 12 29 86 91 108 91 6 -1 22 -7
36 -16z m2960 -50 c22 -20 38 -39 36 -42 -3 -3 -12 1 -20 7 -16 14 -56 6 -56
-10 0 -6 9 -8 19 -4 11 3 22 2 25 -3 3 -6 -2 -12 -13 -15 -11 -2 -21 -17 -25
-38 -7 -36 0 -47 32 -54 42 -8 52 -29 46 -92 -5 -63 7 -100 41 -118 25 -13 31
-48 10 -65 -19 -16 -32 -6 -17 13 13 16 -2 37 -26 37 -35 0 -58 -90 -30 -118
9 -9 9 -12 0 -12 -7 0 -15 8 -18 18 -3 9 -11 27 -17 40 -8 16 -8 34 -1 62 9
30 8 37 -2 33 -7 -2 -15 -10 -17 -16 -2 -7 -2 -2 0 11 2 14 -2 22 -11 22 -7 0
-19 7 -27 16 -7 8 -26 22 -42 31 -28 14 -31 14 -40 -2 -7 -14 -11 -15 -18 -4
-4 7 -11 11 -14 7 -9 -8 14 -42 38 -57 14 -9 22 -10 30 -2 8 8 8 11 -1 11 -7
0 -12 5 -12 10 0 6 4 10 10 10 14 0 60 -49 60 -65 0 -8 4 -15 9 -15 5 0 11
-15 13 -32 3 -18 11 -54 18 -80 8 -26 11 -50 7 -54 -11 -12 -34 15 -42 49 -7
32 -7 32 -15 7 -4 -14 -8 -19 -9 -12 -1 6 -6 12 -12 12 -6 0 -8 -9 -4 -21 5
-15 2 -22 -14 -26 -17 -4 -18 -8 -8 -24 6 -10 18 -19 26 -19 10 0 12 -10 7
-41 -11 -67 2 -102 61 -171 60 -69 92 -129 93 -169 0 -66 71 -165 133 -188 92
-35 220 19 270 113 18 34 22 58 22 141 0 90 -3 105 -27 150 -50 92 -91 121
-152 110 -30 -5 -30 -5 -6 6 61 26 144 -33 180 -129 38 -99 23 -267 -29 -325
-43 -47 -59 -59 -110 -78 -64 -24 -158 -21 -210 6 -38 19 -76 69 -91 120 -13
45 -55 103 -66 92 -4 -4 0 -15 9 -25 17 -19 47 -129 47 -175 0 -16 -7 -54 -16
-85 -16 -55 -17 -55 -31 -31 -14 23 -14 22 -9 -16 3 -22 6 -53 6 -69 0 -16 3
-26 6 -23 4 4 22 -13 40 -37 l33 -44 -16 -88 c-8 -49 -18 -96 -21 -104 -3 -8
-6 -21 -6 -29 -1 -8 -9 -19 -19 -25 -14 -9 -20 -8 -27 4 -5 8 -10 13 -11 10 0
-3 -2 -15 -3 -27 -3 -23 -13 -40 -19 -32 -8 9 15 69 26 69 7 0 18 5 24 11 13
13 6 39 -9 39 -5 0 -7 -4 -4 -8 2 -4 -9 -14 -25 -21 -16 -7 -29 -19 -29 -27 0
-17 -12 -18 -28 -2 -17 17 -15 28 7 28 30 0 40 22 49 105 l8 78 -62 63 c-59
61 -104 143 -104 190 0 8 -4 23 -10 33 -5 10 -16 49 -24 87 -19 93 -69 198
-111 236 -29 25 -38 22 -30 -9 4 -19 3 -25 -4 -18 -13 13 -71 153 -71 171 0 7
-14 29 -32 49 -49 57 -52 180 -2 131 18 -19 44 -21 44 -5 0 11 37 10 137 -7
47 -7 93 1 93 17 0 6 -9 8 -20 4 -11 -3 -57 1 -101 10 -45 9 -96 15 -115 13
-25 -3 -36 1 -50 19 -9 13 -21 23 -26 23 -25 0 -92 58 -110 97 -19 41 -38 56
-38 32 0 -8 -5 -8 -15 1 -8 7 -15 19 -15 27 0 9 -6 13 -14 10 -21 -8 -26 2
-15 30 7 20 5 28 -13 43 l-22 17 22 7 c12 4 22 12 22 18 0 5 -7 8 -15 4 -9 -3
-15 0 -15 9 0 18 -1 18 45 -1 27 -11 35 -19 30 -32 -3 -9 -3 -14 0 -10 8 8 34
-13 89 -71 22 -24 55 -50 73 -57 17 -8 38 -26 45 -41 7 -15 22 -29 33 -31 11
-2 30 -16 42 -31 l23 -26 6 23 c5 17 14 22 40 22 41 0 48 -10 35 -55 l-10 -36
39 33 c38 33 45 53 19 53 -8 1 -27 9 -43 20 -24 16 -33 17 -59 7 -17 -6 -33
-9 -36 -7 -9 10 25 35 51 37 15 1 25 5 24 8 -2 3 0 14 5 25 6 16 8 14 8 -12 1
-42 21 -54 21 -12 0 25 10 41 47 74 42 38 46 45 37 66 -13 28 -8 49 11 49 17
0 4 53 -19 76 -17 16 -21 36 -9 47 3 4 11 -3 17 -16 7 -12 23 -23 36 -25 18
-2 21 0 11 6 -11 8 -10 12 5 20 18 11 18 11 -1 27 -11 9 -15 14 -8 11 6 -4 16
2 22 11 9 17 10 17 16 1 7 -19 25 -25 25 -9 0 5 -7 17 -16 25 -14 15 -13 17 8
25 20 9 10 16 -15 12 -5 -1 -6 3 -2 9 14 23 65 10 105 -26z m-2310 -159 c0 -8
-8 -15 -17 -15 -15 0 -14 -4 6 -19 24 -19 24 -19 3 -30 -17 -9 -19 -16 -12
-42 9 -30 8 -31 -16 -25 -22 6 -25 4 -20 -12 9 -26 -19 -50 -28 -26 -5 14 -11
9 -27 -22 -28 -53 -54 -79 -108 -111 -25 -14 -48 -29 -51 -32 -3 -4 -31 -8
-63 -10 -31 -1 -80 -9 -107 -16 -33 -9 -61 -10 -80 -5 -38 11 -40 -7 -2 -21
19 -8 42 -8 83 0 67 13 132 14 124 2 -3 -6 7 -6 27 -1 17 6 35 15 38 21 11 17
22 -40 14 -75 -3 -17 -23 -53 -43 -81 -20 -27 -34 -51 -32 -53 6 -5 -38 -116
-54 -137 -16 -20 -16 -20 -12 3 14 61 -59 -14 -101 -106 -18 -39 -36 -88 -39
-109 -5 -38 -31 -126 -61 -213 -11 -29 -38 -67 -80 -109 l-63 -64 7 -66 c8
-83 19 -112 44 -118 16 -4 18 -9 9 -25 -10 -18 -11 -18 -30 6 -11 15 -27 26
-35 26 -8 0 -14 5 -14 10 0 6 -4 10 -10 10 -24 0 -8 -39 20 -49 23 -8 30 -16
30 -36 0 -15 -4 -24 -10 -20 -5 3 -10 15 -10 26 0 21 -16 26 -22 7 -9 -25 -45
30 -52 78 -4 27 -9 66 -12 87 -4 28 -2 37 8 37 15 0 26 18 51 85 14 39 14 45
-14 125 -17 52 -28 107 -29 141 0 63 23 151 46 174 19 18 14 28 -9 20 -8 -4
-29 -39 -46 -78 -39 -87 -59 -113 -103 -131 -88 -36 -179 -28 -261 24 -34 22
-52 43 -77 94 -31 62 -32 70 -28 155 3 76 9 99 37 154 37 72 85 108 142 106
26 -1 28 -3 9 -6 -57 -9 -71 -14 -96 -40 -15 -15 -38 -52 -52 -82 -21 -45 -25
-70 -25 -140 0 -95 16 -146 61 -195 33 -35 117 -76 157 -76 106 0 193 83 211
202 9 59 27 91 95 172 l59 70 0 72 c0 61 3 72 19 77 10 2 21 17 25 33 8 30 33
64 47 64 5 0 6 -7 3 -15 -4 -8 -3 -15 1 -15 11 0 50 22 57 33 4 6 12 4 23 -6
25 -26 35 -20 30 17 -4 28 -1 36 15 41 24 8 60 -11 60 -30 0 -24 19 -17 32 10
6 14 18 25 27 25 23 1 47 21 55 47 6 19 79 59 99 54 5 -1 5 3 2 9 -11 18 115
134 173 159 1 1 2 -6 2 -14z m69 -212 c0 -62 -15 -170 -18 -132 -2 27 -26 41
-52 30 -23 -8 -89 -97 -89 -120 0 -16 -13 -14 -68 14 -43 21 -50 30 -54 58 -3
29 1 36 34 57 21 13 50 41 64 62 15 21 30 35 35 32 5 -3 25 11 45 30 28 27 46
36 71 36 l33 0 -1 -67z m1519 12 c22 -20 45 -34 51 -33 6 2 17 -8 24 -22 11
-22 81 -83 106 -91 21 -8 -4 -73 -34 -90 -45 -27 -85 -34 -85 -17 0 8 -11 25
-25 38 -13 12 -22 26 -19 31 7 13 -38 49 -62 49 -25 0 -51 -25 -34 -33 6 -3 5
-4 -2 -3 -24 5 -38 190 -15 199 30 13 56 5 95 -28z m196 -342 c4 -4 -22 -22
-58 -39 -98 -48 -175 -33 -176 33 0 12 -3 29 -7 39 -4 11 -3 15 5 10 6 -3 15
2 21 11 9 15 10 11 11 -19 0 -20 5 -40 10 -43 6 -4 10 8 10 30 0 35 1 36 33
30 22 -4 47 2 82 18 l50 24 5 -43 c3 -24 9 -47 14 -51z m-1985 -26 c114 -58
117 -59 157 -51 21 5 43 7 47 6 5 -1 6 1 4 5 -3 5 0 15 6 24 9 12 12 -14 12
-120 0 -75 3 -152 6 -171 9 -57 45 -115 103 -166 l54 -48 -48 -33 c-27 -18
-51 -33 -53 -33 -2 0 -3 10 -3 22 1 14 -9 27 -25 37 -24 13 -30 13 -64 -3 -20
-10 -48 -19 -62 -21 -13 -1 -35 -13 -48 -25 -17 -16 -41 -24 -76 -28 l-52 -5
6 34 c3 19 11 96 18 171 9 108 9 143 -1 167 -17 42 -54 64 -100 59 l-38 -3 19
35 c33 62 59 123 59 140 0 36 17 38 79 7z m2037 -24 c10 -42 45 -125 67 -156
l19 -28 -41 7 c-37 6 -44 3 -77 -30 l-37 -37 8 -122 c4 -67 11 -144 16 -171 5
-27 8 -50 7 -51 -2 -1 -24 -5 -51 -8 -42 -6 -50 -4 -69 18 -12 14 -32 25 -44
25 -13 0 -39 9 -59 20 -20 11 -43 20 -52 20 -23 0 -53 -29 -53 -52 0 -17 -2
-17 -32 4 -18 13 -34 26 -36 31 -2 4 -9 7 -17 7 -7 0 -18 7 -25 15 -9 11 -9
15 -1 15 19 0 111 92 131 130 29 57 42 148 38 267 l-3 110 23 -31 c34 -46 81
-46 185 4 45 21 85 39 89 39 4 1 11 -11 14 -26z m-2092 -205 c23 -32 19 -158
-10 -359 l-6 -47 63 3 c35 1 72 6 83 10 16 7 17 6 6 -14 -16 -31 -6 -37 19
-12 12 12 25 21 30 21 5 0 16 3 25 6 11 4 14 0 11 -15 -5 -26 -28 -51 -47 -51
-8 0 -19 -5 -24 -10 -7 -7 -20 -7 -40 0 -22 8 -39 8 -59 0 -19 -7 -31 -8 -39
0 -12 12 -56 13 -56 1 0 -5 10 -11 22 -15 17 -4 20 -8 11 -17 -16 -16 -43 -4
-43 21 0 11 -4 20 -10 20 -5 0 -10 -11 -10 -25 0 -14 -4 -25 -9 -25 -16 0 -18
47 -4 80 7 18 13 44 13 59 0 35 -39 74 -60 61 -8 -5 -23 -10 -32 -10 -16 0
-18 10 -18 75 0 53 -4 75 -12 75 -7 0 -21 7 -30 14 -16 12 -15 18 17 82 31 64
34 66 34 37 1 -47 21 -41 21 6 0 45 2 46 81 49 50 2 60 -1 73 -20z m2218 -23
c3 -11 6 -38 7 -59 1 -48 18 -37 23 14 l4 35 27 -59 c30 -64 29 -85 -3 -93
-18 -5 -20 -14 -20 -79 0 -71 -1 -74 -23 -74 -13 0 -28 5 -35 12 -6 6 -15 9
-19 5 -3 -4 1 -13 11 -20 14 -10 15 -18 7 -40 -6 -16 -11 -50 -11 -76 0 -43
-12 -71 -32 -71 -4 0 -8 11 -8 25 0 14 -4 25 -10 25 -5 0 -10 -9 -10 -20 0
-27 -25 -36 -58 -20 -15 7 -58 14 -96 16 -75 3 -110 24 -118 69 -5 22 -2 23
26 18 17 -4 67 -7 111 -7 44 -1 84 -5 88 -11 8 -10 7 8 -13 162 -5 40 -10 109
-11 153 -3 105 10 120 96 117 50 -2 61 -5 67 -22z m-2440 -239 c10 -50 19 -72
33 -80 35 -20 44 -40 45 -97 0 -71 18 -90 86 -90 27 -1 62 4 77 10 33 13 57
14 57 4 0 -13 -61 -43 -73 -36 -7 3 -9 3 -5 -1 19 -22 -69 -71 -231 -128 -74
-26 -85 -28 -100 -14 -9 8 -32 17 -52 21 -35 7 -37 9 -43 58 -10 90 -8 103 20
116 52 23 96 99 139 236 16 49 30 85 32 80 2 -6 9 -41 15 -79z m2564 -33 c40
-131 73 -186 137 -227 24 -16 25 -22 21 -69 -9 -89 -11 -95 -46 -102 -18 -4
-39 -12 -46 -17 -24 -20 -432 142 -456 180 -6 11 90 -5 115 -19 24 -12 110 0
132 19 13 11 17 31 17 79 0 63 1 65 30 76 24 9 31 19 40 60 5 26 10 61 10 77
0 55 19 31 46 -57z m-1871 -27 c-10 -6 -32 -24 -49 -39 l-31 -28 49 31 c28 16
55 30 60 30 6 0 -30 -25 -79 -54 -122 -75 -127 -78 -90 -71 17 4 31 10 33 15
2 5 10 6 19 3 8 -3 18 -1 22 5 8 14 151 82 171 82 9 0 21 -14 27 -30 11 -29
10 -31 -24 -45 -20 -8 -37 -15 -40 -15 -2 0 -36 -18 -75 -40 -43 -25 -75 -37
-82 -32 -6 5 -38 15 -71 22 -82 18 -97 27 -62 35 15 4 27 11 27 17 0 5 5 6 10
3 6 -3 10 -2 10 3 0 6 11 13 25 16 14 4 23 10 21 15 -11 17 111 101 133 93 12
-5 11 -8 -4 -16z m1068 -45 c25 -11 63 -31 86 -45 45 -29 56 -32 45 -13 -5 6
8 0 28 -15 20 -16 42 -28 49 -28 24 0 3 -9 -54 -24 l-57 -15 -77 40 c-43 21
-83 39 -90 39 -21 0 -24 19 -8 50 18 35 20 36 78 11z m-871 -99 c17 -23 86
-71 163 -112 l60 -31 -75 6 c-96 8 -301 51 -310 65 -4 6 -14 8 -22 5 -28 -11
-28 12 0 25 41 20 146 59 159 59 6 1 18 -7 25 -17z m865 -29 l54 -27 -43 -13
c-49 -15 -261 -58 -328 -67 l-45 -6 33 15 c45 20 164 98 182 119 18 23 72 15
147 -21z m98 -92 c13 -27 35 -57 47 -65 12 -9 20 -17 17 -20 -7 -7 -221 -55
-336 -75 -138 -25 -305 -38 -283 -22 10 8 12 13 4 19 -16 10 -24 101 -10 110
6 3 72 15 146 25 74 10 146 19 160 21 14 2 32 6 40 9 22 9 163 46 177 46 7 1
24 -21 38 -48z m-1060 9 c75 -22 210 -42 325 -47 84 -4 129 -11 138 -20 11
-11 9 -15 -14 -23 -25 -10 -26 -12 -10 -29 18 -20 21 -51 5 -51 -6 0 -8 -7 -5
-17 6 -15 -5 -16 -121 -9 -70 4 -159 12 -198 19 -59 11 -66 14 -42 20 25 7 39
27 18 27 -6 0 -5 15 1 36 10 39 10 41 -12 44 -32 5 -43 1 -32 -13 14 -17 4
-57 -14 -57 -11 0 -13 9 -8 39 5 30 3 39 -11 45 -28 10 -34 -2 -32 -59 2 -63
6 -62 -96 -39 -63 14 -110 34 -81 34 17 0 55 40 48 51 -3 5 0 8 8 7 7 -2 12 5
12 14 -1 10 2 15 7 13 5 -3 14 3 21 14 13 21 23 21 93 1z m1105 -202 c0 -16
-5 -19 -26 -15 -33 6 -40 -12 -20 -51 13 -25 24 -32 61 -38 60 -8 101 9 126
55 18 32 19 33 14 9 -7 -38 8 -35 24 5 13 29 14 30 18 9 6 -33 -27 -93 -66
-119 -44 -30 -122 -31 -169 -3 -60 37 -89 112 -58 152 31 42 96 39 96 -4z
m-1220 12 c33 -33 26 -81 -17 -129 -78 -83 -203 -69 -253 29 -27 53 -26 70 6
70 19 0 28 -7 36 -30 21 -62 120 -81 171 -34 37 34 34 70 -5 66 -22 -3 -28 1
-28 16 0 10 3 22 7 25 14 14 64 6 83 -13z"/>
<path d="M1795 3705 c-84 -15 -152 -44 -200 -86 -39 -34 -43 -50 -19 -70 44
-36 108 -162 149 -289 60 -190 67 -312 34 -565 -28 -213 -24 -347 13 -425 37
-78 89 -127 174 -166 45 -21 75 -42 79 -54 7 -23 88 -108 130 -137 174 -120
319 -122 491 -8 43 29 69 54 134 132 5 7 10 19 10 28 0 8 7 15 15 15 47 0 151
71 214 146 52 62 63 234 31 481 -27 203 -23 329 16 484 30 122 106 290 157
346 l36 40 -32 30 c-78 75 -194 106 -387 106 -181 0 -361 -40 -416 -91 -19
-18 -20 -18 -38 0 -11 10 -27 18 -37 18 -9 0 -19 4 -21 10 -1 5 -30 17 -63 26
-154 43 -335 54 -470 29z m427 -349 c12 -8 33 -11 67 -6 46 6 62 -3 38 -21 -5
-3 -1 -13 7 -22 23 -23 20 -36 -11 -43 -16 -4 -35 -13 -44 -21 -15 -13 -15
-19 -3 -60 8 -26 20 -54 28 -62 7 -9 19 -38 25 -66 7 -27 16 -54 21 -60 5 -6
10 -23 12 -37 2 -15 7 -30 11 -34 4 -4 7 -19 7 -33 0 -28 50 -106 60 -94 8 9
49 117 56 148 3 11 7 31 10 45 9 46 16 65 46 130 40 85 43 120 11 137 -14 7
-30 13 -37 13 -6 0 -11 11 -11 25 0 23 7 30 29 26 4 -1 6 9 2 22 -5 22 -3 23
37 20 65 -6 66 -6 62 -14 -11 -18 7 -36 31 -31 19 3 24 9 21 24 -5 17 -1 19
31 16 56 -5 52 -28 -17 -97 -34 -33 -61 -65 -61 -71 0 -5 -4 -10 -10 -10 -5 0
-10 -7 -10 -15 0 -8 -4 -15 -9 -15 -6 0 -6 -12 1 -30 8 -25 7 -34 -6 -49 -11
-12 -14 -27 -10 -50 5 -23 2 -37 -11 -51 -10 -11 -14 -20 -10 -20 4 0 1 -8 -8
-17 -8 -10 -16 -21 -16 -26 -2 -19 -31 -77 -39 -77 -5 0 -12 -19 -16 -42 -4
-23 -11 -47 -15 -53 -5 -5 -11 -22 -15 -38 -4 -15 -18 -52 -31 -82 -14 -29
-24 -64 -22 -77 1 -15 -3 -23 -13 -23 -15 0 -17 46 -9 148 1 16 -5 36 -14 45
-16 15 -17 15 -17 -2 0 -12 -5 -16 -15 -13 -8 4 -17 2 -20 -4 -9 -14 -25 -1
-19 16 4 9 -7 30 -25 50 -17 20 -31 41 -32 48 -1 27 -36 150 -49 177 -11 22
-61 173 -62 188 -1 6 -5 12 -10 12 -5 0 -7 9 -3 20 8 25 -12 63 -30 56 -8 -3
-17 -1 -21 5 -3 6 -11 8 -16 7 -16 -6 -54 36 -62 66 l-6 26 58 -6 c36 -4 67
-2 78 4 26 15 65 14 86 -2z m-226 -377 c9 1 12 -36 14 -194 1 -49 4 -82 7 -72
2 9 11 17 20 17 8 0 28 14 44 31 23 25 27 35 18 45 -9 11 -8 14 4 14 8 0 17 4
19 10 2 6 22 4 53 -4 l50 -13 -32 -7 c-18 -4 -37 -5 -42 -2 -5 3 -8 -2 -7 -11
2 -10 -12 -28 -35 -45 -49 -35 -56 -48 -30 -55 12 -3 21 -12 21 -19 0 -8 4
-14 10 -14 5 0 21 -18 35 -39 13 -22 40 -47 60 -57 36 -17 46 -34 20 -34 -8 0
-15 6 -15 13 0 9 -3 8 -9 -2 -6 -9 -21 -12 -45 -9 -19 2 -38 -1 -40 -7 -7 -16
-27 17 -22 37 2 10 -5 27 -15 39 -11 13 -16 25 -12 28 5 3 9 14 11 24 3 19
-23 24 -33 6 -5 -6 -12 -4 -21 8 -12 16 -14 11 -12 -42 2 -43 7 -60 17 -60 7
0 18 -10 22 -23 9 -23 9 -23 -69 -20 -59 2 -77 6 -77 18 0 8 10 17 21 20 21 5
22 10 20 138 0 72 2 132 5 132 8 0 5 38 -5 73 -5 15 -14 27 -21 27 -7 0 -15 9
-18 21 -5 18 -2 20 19 15 17 -5 24 -2 24 8 0 17 22 27 31 14 3 -5 10 -9 15 -9z
m745 -57 c1 -31 0 -92 -1 -134 -1 -51 2 -78 9 -78 6 0 11 5 11 10 0 6 4 10 9
10 12 0 71 59 71 70 0 5 -6 11 -12 13 -8 4 -7 6 4 6 9 1 18 7 20 14 2 10 12 9
48 -4 l44 -16 -32 -8 c-18 -3 -32 -12 -32 -18 0 -7 -16 -22 -35 -34 -29 -19
-75 -77 -47 -59 12 7 67 -45 87 -84 9 -18 29 -36 45 -41 30 -11 46 -34 29 -45
-6 -3 -13 4 -16 15 l-6 22 -14 -21 c-14 -20 -53 -28 -53 -10 0 6 -5 10 -11 10
-5 0 -7 -4 -4 -10 3 -5 -1 -10 -9 -10 -18 0 -32 40 -17 49 8 5 5 13 -8 25 -15
13 -19 26 -14 47 4 22 2 29 -10 29 -8 0 -17 -6 -20 -12 -3 -9 -10 -7 -21 7
-14 19 -15 17 -16 -37 0 -50 3 -58 19 -58 16 0 31 -18 31 -36 0 -2 -36 -4 -80
-4 -44 0 -80 2 -80 4 0 16 14 36 26 36 18 0 24 47 21 163 -1 53 1 97 5 97 9 0
4 46 -7 73 -5 11 -3 17 6 17 9 1 8 4 -4 11 -9 5 -21 8 -26 5 -5 -3 -11 3 -14
15 -5 18 -2 20 25 14 23 -5 29 -4 23 5 -11 17 15 31 37 19 14 -8 18 -23 19
-67z"/>
<path d="M907 3289 c-27 -22 -36 -36 -32 -49 4 -12 -1 -22 -12 -29 -14 -8 -18
-23 -18 -73 0 -49 -3 -63 -15 -63 -8 0 -14 6 -13 13 4 18 -24 15 -31 -4 -15
-38 11 -64 64 -64 54 0 75 31 67 98 -7 54 6 78 43 84 21 2 25 8 23 33 -1 16
-9 35 -18 41 -17 13 -10 25 11 17 8 -3 14 -1 14 5 0 9 -22 22 -39 22 -3 0 -23
-14 -44 -31z"/>
<path d="M1800 1302 c0 -7 7 -15 15 -18 12 -5 15 -27 15 -109 0 -82 -3 -104
-15 -109 -33 -12 -12 -26 40 -26 53 0 72 11 40 24 -10 4 -15 20 -15 53 l0 47
30 -34 c17 -19 38 -47 47 -62 14 -23 25 -28 55 -28 41 0 59 15 29 25 -11 3
-39 29 -63 58 -23 29 -47 55 -53 59 -11 8 70 95 97 104 37 11 16 24 -39 24
-52 -1 -56 -2 -40 -14 22 -17 14 -36 -32 -80 l-31 -30 0 47 c0 33 5 49 15 53
30 12 14 22 -40 26 -40 2 -55 -1 -55 -10z"/>
<path d="M2134 1306 c-65 -29 -95 -99 -75 -174 32 -116 191 -127 237 -16 8 19
14 48 14 65 0 36 -33 100 -60 116 -30 20 -83 24 -116 9z m87 -29 c24 -18 43
-89 35 -130 -14 -76 -80 -113 -120 -68 -41 45 -40 147 0 192 19 22 61 24 85 6z"/>
<path d="M2650 1307 c-70 -35 -61 -114 17 -143 55 -21 79 -53 63 -83 -6 -12
-21 -21 -34 -21 -26 0 -76 44 -76 67 0 8 -5 13 -11 11 -6 -2 -10 -7 -10 -11 1
-4 1 -24 1 -45 l0 -38 69 -2 c64 -3 70 -1 90 24 24 30 27 72 9 97 -7 9 -33 25
-58 35 -57 24 -78 47 -63 70 6 10 23 17 39 17 23 0 32 -7 44 -32 22 -47 40
-42 40 11 0 42 -2 45 -28 44 -15 -1 -36 2 -47 5 -11 4 -31 1 -45 -6z"/>
<path d="M700 1301 c0 -5 9 -13 20 -16 18 -6 20 -15 20 -110 0 -95 -2 -104
-20 -110 -36 -11 -11 -25 46 -25 51 0 71 11 40 23 -16 6 -27 54 -17 79 5 15
14 8 51 -41 41 -55 48 -60 83 -61 38 0 51 18 20 27 -10 3 -40 32 -67 65 l-50
61 32 28 c18 16 29 29 26 29 -4 0 5 9 19 20 29 23 50 25 64 8 10 -13 74 -179
88 -226 4 -13 11 -22 17 -20 5 2 30 55 55 118 51 132 61 145 97 136 26 -6 26
-7 26 -106 0 -87 -2 -100 -20 -113 -28 -19 -15 -27 47 -27 54 0 67 11 36 29
-12 6 -18 23 -19 50 -1 23 2 41 5 41 4 0 27 -27 52 -60 40 -54 48 -59 82 -60
36 0 50 15 23 26 -8 3 -38 32 -66 65 l-52 60 38 42 c21 23 48 46 61 50 40 15
25 27 -32 27 -30 0 -55 -4 -55 -10 0 -5 7 -10 15 -10 8 0 15 -5 15 -10 0 -10
-74 -90 -82 -90 -12 0 2 86 16 96 9 6 16 14 16 18 0 3 -49 6 -110 6 -60 0
-110 -3 -110 -6 0 -4 8 -12 17 -19 15 -11 15 -18 5 -54 -7 -22 -21 -60 -30
-83 l-18 -41 -28 77 c-15 42 -30 84 -33 92 -3 8 1 14 11 14 9 0 16 5 16 10 0
6 -42 10 -105 10 -63 0 -105 -4 -105 -10 0 -5 5 -10 10 -10 19 0 10 -25 -21
-63 -35 -43 -43 -41 -45 10 -1 24 4 38 17 46 32 20 21 27 -41 27 -33 0 -60 -4
-60 -9z"/>
<path d="M2330 1299 c0 -6 9 -13 20 -16 18 -5 20 -14 20 -110 0 -96 -2 -105
-20 -110 -36 -10 -10 -23 46 -23 56 0 65 5 38 24 -11 8 -14 25 -12 56 l3 45
44 -62 c42 -58 48 -63 83 -63 41 0 50 13 20 29 -10 5 -40 35 -67 66 l-48 56
49 50 c26 27 54 49 61 49 7 0 13 5 13 10 0 6 -26 10 -57 10 -52 -1 -56 -2 -40
-14 22 -17 14 -36 -32 -80 l-31 -30 0 47 c0 33 5 49 15 53 33 13 12 24 -45 24
-37 0 -60 -4 -60 -11z"/>
<path d="M2818 1293 c20 -14 22 -23 22 -120 0 -83 -3 -105 -15 -109 -32 -13
-13 -24 40 -24 52 0 73 14 40 26 -11 4 -15 21 -15 55 l0 49 55 0 55 0 0 -50
c0 -36 -4 -52 -15 -56 -32 -13 -13 -24 40 -24 52 0 73 14 40 26 -12 5 -15 27
-15 110 0 84 3 106 15 110 32 13 13 24 -40 24 -53 0 -72 -11 -40 -24 10 -4 15
-20 15 -51 l0 -45 -55 0 -55 0 0 44 c0 34 5 47 23 59 21 15 18 16 -48 16 -66
0 -69 -1 -47 -16z"/>
<path d="M3110 1302 c0 -4 9 -13 20 -20 18 -11 20 -23 20 -107 0 -84 -2 -96
-20 -107 -11 -7 -20 -16 -20 -20 0 -5 49 -8 109 -8 l108 0 6 37 c8 48 -5 61
-27 28 -22 -33 -58 -47 -91 -35 -22 8 -25 16 -25 55 0 41 2 45 25 45 18 0 28
-7 35 -26 15 -38 30 -19 30 37 0 35 -4 49 -14 49 -7 0 -16 -9 -19 -20 -3 -14
-14 -20 -31 -20 -25 0 -26 3 -26 50 l0 50 34 0 c33 0 66 -21 66 -41 0 -5 7 -9
15 -9 10 0 15 11 15 35 l0 35 -105 0 c-58 0 -105 -3 -105 -8z"/>
<path d="M3340 1270 c0 -22 3 -40 6 -40 3 0 17 14 31 30 45 54 53 43 53 -81 0
-102 -2 -111 -20 -116 -41 -11 -18 -23 45 -23 66 0 81 10 45 30 -18 10 -20 21
-20 115 0 97 1 105 19 105 11 0 31 -15 45 -32 l26 -33 0 27 c0 14 3 33 6 42 5
14 -9 16 -115 16 l-121 0 0 -40z"/>
<path d="M3677 1278 c-8 -18 -26 -67 -41 -108 -16 -41 -39 -85 -52 -97 -13
-12 -24 -25 -24 -28 0 -3 25 -5 55 -5 55 0 73 13 35 25 -23 7 -25 18 -10 46 8
14 21 19 54 19 37 0 45 -4 50 -22 9 -34 7 -48 -5 -45 -6 1 -14 -4 -16 -10 -3
-10 12 -13 56 -13 63 0 74 7 43 26 -10 6 -38 64 -62 128 -25 64 -51 116 -57
116 -7 0 -19 -15 -26 -32z"/>
<path d="M3840 1300 c0 -6 7 -13 15 -16 12 -5 15 -26 15 -104 0 -95 1 -99 26
-119 37 -29 112 -29 145 0 21 18 25 31 29 117 5 87 7 98 27 108 33 16 18 24
-44 24 -56 0 -65 -7 -33 -28 18 -11 20 -23 20 -101 0 -59 -4 -92 -12 -98 -25
-20 -64 -23 -86 -7 -20 14 -22 24 -22 111 0 86 2 95 20 100 11 3 17 9 14 14
-7 13 -114 11 -114 -1z"/>
</g>
</svg>
